<svg width="94" height="60" viewBox="0 0 94 60" fill="none" xmlns="http://www.w3.org/2000/svg">
<mask id="mask0_926_20190" style="mask-type:alpha" maskUnits="userSpaceOnUse" x="0" y="0" width="60" height="60">
<path d="M0 23.4132C0 15.1315 0 10.9906 1.63728 7.83871C3.01699 5.18265 5.18265 3.01699 7.83871 1.63728C10.9906 0 15.1315 0 23.4132 0H36.5868C44.8685 0 49.0094 0 52.1613 1.63728C54.8174 3.01699 56.983 5.18265 58.3627 7.83871C60 10.9906 60 15.1315 60 23.4132V36.5868C60 44.8685 60 49.0094 58.3627 52.1613C56.983 54.8174 54.8174 56.983 52.1613 58.3627C49.0094 60 44.8685 60 36.5868 60H23.4132C15.1315 60 10.9906 60 7.83871 58.3627C5.18265 56.983 3.01699 54.8174 1.63728 52.1613C0 49.0094 0 44.8685 0 36.5868V23.4132Z" fill="#C4C4C4"/>
</mask>
<g mask="url(#mask0_926_20190)">
</g>
<rect y="10" width="94" height="40" rx="12" fill="white"/>
<path d="M49.0516 24.4576V25.9749C49.1521 25.8433 49.2944 25.683 49.4786 25.4938C49.6627 25.2964 50.0646 25.0333 50.6841 24.7043C51.312 24.3753 51.9693 24.2109 52.6558 24.2109C54.0958 24.2109 55.2679 24.7002 56.172 25.6789C57.0846 26.6575 57.5409 27.9775 57.5409 29.6388V36.8431H54.0748V30.0212C54.0748 29.2646 53.8446 28.656 53.3841 28.1954C52.932 27.7267 52.346 27.4923 51.626 27.4923C50.839 27.4923 50.2111 27.7472 49.7423 28.2571C49.2818 28.7588 49.0516 29.4743 49.0516 30.4036V36.8431H45.5855V24.4576H49.0516Z" fill="#171717"/>
<path d="M35.539 27.4923V24.4576H25.2539V27.4923H31.1688L25.0028 33.8084V36.8431H35.8028V33.8084H29.373L35.539 27.4923Z" fill="#171717"/>
<path d="M42.1069 36.8431V24.4576H38.9339V36.8431H42.1069Z" fill="#171717"/>
<path d="M67.826 28.1214L69.6218 26.1106L69.1823 25.6295C68.8976 25.3252 68.3869 25.0127 67.6502 24.692C66.9218 24.3712 66.1223 24.2109 65.2516 24.2109C63.8785 24.2109 62.719 24.6138 61.773 25.4198C60.8353 26.2258 60.3665 27.1263 60.3665 28.1214C60.3665 28.8862 60.5632 29.5195 60.9567 30.0212C61.3502 30.5228 61.8274 30.8929 62.3883 31.1314C62.9576 31.3699 63.5311 31.5755 64.1088 31.7482C64.6865 31.9127 65.172 32.1101 65.5655 32.3404C65.959 32.5624 66.1558 32.842 66.1558 33.1792C66.1558 33.5164 66.0134 33.7919 65.7288 34.0057C65.4525 34.2113 65.0381 34.3141 64.4855 34.3141C63.9832 34.3141 63.4976 34.1867 63.0288 33.9317C62.5599 33.6686 62.2502 33.463 62.0995 33.3149C61.9571 33.1587 61.8525 33.0312 61.7855 32.9325L59.8516 34.8199L60.0274 35.079C60.153 35.227 60.3539 35.4121 60.6302 35.6341C60.9148 35.8479 61.2455 36.0659 61.6223 36.2879C61.999 36.51 62.4888 36.6991 63.0916 36.8554C63.6944 37.0116 64.3306 37.0898 65.0004 37.0898C65.2763 37.0898 65.5418 37.078 65.7967 37.0545L64.653 38.7804L66.8865 40L68.9953 35.682C69.6797 34.9881 70.0111 34.1497 70.0111 33.1792C70.0111 32.4062 69.8143 31.7606 69.4209 31.2424C69.0274 30.7161 68.5418 30.3378 67.9641 30.1075C67.3864 29.869 66.813 29.6675 66.2437 29.5031C65.6827 29.3303 65.2055 29.1371 64.812 28.9233C64.4185 28.7094 64.2218 28.4421 64.2218 28.1214C64.2218 27.8582 64.3599 27.628 64.6362 27.4306C64.9125 27.225 65.2892 27.1222 65.7664 27.1222C66.1432 27.1222 66.5116 27.2168 66.8716 27.4059C67.2316 27.5868 67.466 27.7349 67.5748 27.85C67.692 27.9652 67.7757 28.0556 67.826 28.1214Z" fill="#171717"/>
<path fill-rule="evenodd" clip-rule="evenodd" d="M84.5408 31.7852H75.4111C75.545 32.4596 75.9092 33.0312 76.5036 33.5C77.0981 33.9605 77.8474 34.1908 78.7515 34.1908C79.4046 34.1908 80.0074 34.0674 80.5599 33.8207C81.1208 33.5658 81.5143 33.3108 81.7404 33.0559L82.1046 32.6734L83.9004 34.9433L83.6743 35.1653C83.5655 35.2722 83.3394 35.4491 82.9962 35.6958C82.6529 35.9425 82.2887 36.1646 81.9036 36.3619C81.5185 36.5511 81.0162 36.7197 80.3967 36.8677C79.7855 37.0158 79.1534 37.0898 78.5004 37.0898C76.6502 37.0898 75.072 36.4606 73.766 35.2023C72.4599 33.9358 71.8069 32.4185 71.8069 30.6503C71.8069 28.8821 72.4516 27.3689 73.7409 26.1106C75.0302 24.8441 76.5748 24.2109 78.3748 24.2109C80.1748 24.2109 81.6734 24.803 82.8706 25.9873C84.0678 27.1633 84.6664 28.6354 84.6664 30.4036L84.5408 31.7852ZM80.2334 27.7637C79.7311 27.336 79.1115 27.1222 78.3748 27.1222C77.6381 27.1222 77.0102 27.3319 76.4911 27.7513C75.9804 28.1708 75.6204 28.7177 75.4111 29.392H81.2004C81.0664 28.7341 80.7441 28.1913 80.2334 27.7637Z" fill="#171717"/>
<path d="M40.5414 23.158C41.4291 23.158 42.1488 22.4511 42.1488 21.579C42.1488 20.707 41.4291 20 40.5414 20C39.6536 20 38.9339 20.707 38.9339 21.579C38.9339 22.4511 39.6536 23.158 40.5414 23.158Z" fill="#171717"/>
<path fill-rule="evenodd" clip-rule="evenodd" d="M16.4298 36.8429C19.9808 36.8429 22.8595 34.0151 22.8595 30.5268C22.8595 27.0385 19.9808 24.2107 16.4298 24.2107C12.8787 24.2107 10 27.0385 10 30.5268C10 34.0151 12.8787 36.8429 16.4298 36.8429ZM14.6455 33.6499L19.5418 30.7005C19.5734 30.6814 19.5994 30.6556 19.6173 30.6253C19.6353 30.595 19.6446 30.5612 19.6446 30.5268C19.6446 30.4925 19.6353 30.4586 19.6173 30.4284C19.5994 30.3981 19.5734 30.3722 19.5418 30.3532L14.6455 27.4037C14.6107 27.3828 14.5703 27.3708 14.5285 27.369C14.4868 27.3672 14.4453 27.3757 14.4085 27.3935C14.3716 27.4113 14.3408 27.4378 14.3194 27.4702C14.2979 27.5026 14.2865 27.5396 14.2865 27.5774V33.4763C14.2865 33.514 14.2979 33.5511 14.3194 33.5834C14.3408 33.6158 14.3716 33.6423 14.4085 33.6602C14.4453 33.678 14.4868 33.6864 14.5285 33.6846C14.5703 33.6828 14.6107 33.6708 14.6455 33.6499Z" fill="#7E2DFC"/>
<path d="M13.7507 23.158C14.6385 23.158 15.3581 22.4511 15.3581 21.579C15.3581 20.707 14.6385 20 13.7507 20C12.8629 20 12.1433 20.707 12.1433 21.579C12.1433 22.4511 12.8629 23.158 13.7507 23.158Z" fill="#7E2DFC"/>
<path d="M20.7163 21.579C20.7163 22.4511 19.9966 23.158 19.1088 23.158C18.2211 23.158 17.5014 22.4511 17.5014 21.579C17.5014 20.707 18.2211 20 19.1088 20C19.9966 20 20.7163 20.707 20.7163 21.579Z" fill="#7E2DFC"/>
</svg>
